{"title":"The Strawbs - Nomadness FLAC","uid":4831900,"size":315523099,"categoryP":"audio","categoryS":"flac","magnet":"?xt=urn:btih:bec8c649e21103a5c150763facaeab2d4985b0e7&amp;dn=The+Strawbs+-+Nomadness+FLAC&amp;tr=udp%3A%2F%2Ftracker.openbittorrent.com%3A80&amp;tr=udp%3A%2F%2Fopen.demonii.com%3A1337&amp;tr=udp%3A%2F%2Ftracker.coppersurfer.tk%3A6969&amp;tr=udp%3A%2F%2Fexodus.desync.com%3A6969","seeders":1,"leechers":0,"uploader":null,"files":14,"time":1239166471,"description":"Exact Audio Copy V0.99 prebeta 3 from 28. July 2007\n\nEAC extraction logfile from 7. April 2009, 19:50\n\nThe Strawbs / Nomadness\n\nUsed drive  : ATAPI   DVD D  DH16D3P   Adapter: 0  ID: 1\n\nRead mode               : Secure\nUtilize accurate stream : Yes\nDefeat audio cache      : No\nMake use of C2 pointers : No\n\nRead offset correction                      : 6\nOverread into Lead-In and Lead-Out          : No\nFill up missing offset samples with silence : Yes\nDelete leading and trailing silent blocks   : No\nNull samples used in CRC calculations       : No\nUsed interface                              : Installed external ASPI interface\nGap handling                                : Not detected, thus appended to previous track\n\nUsed output format : Internal WAV Routines\nSample format      : 44.100 Hz; 16 Bit; Stereo\n\n\nTOC of the extracted CD\n\n     Track |   Start  |  Length  | Start sector | End sector \n    ---------------------------------------------------------\n        1  |  0:00.00 |  4:15.44 |         0    |    19168   \n        2  |  4:15.44 |  4:08.10 |     19169    |    37778   \n        3  |  8:23.54 |  4:54.58 |     37779    |    59886   \n        4  | 13:18.37 |  4:38.26 |     59887    |    80762   \n        5  | 17:56.63 |  2:45.05 |     80763    |    93142   \n        6  | 20:41.68 |  3:40.17 |     93143    |   109659   \n        7  | 24:22.10 |  2:48.49 |    109660    |   122308   \n        8  | 27:10.59 |  4:32.07 |    122309    |   142715   \n        9  | 31:42.66 |  4:32.27 |    142716    |   163142   \n       10  | 36:15.18 |  4:08.70 |    163143    |   181812   \n       11  | 40:24.13 |  2:30.57 |    181813    |   193119   \n       12  | 42:54.70 |  4:05.05 |    193120    |   211499   \n\n\nTrack  1\n\n     Filename E:MusicThe StrawbsNomadnessThe Strawbs - Nomadness - 01. To be free.wav\n\n     Peak level 98.8 %\n     Track quality 100.0 %\n     Copy CRC 8FFC352D\n     Track not present in AccurateRip database\n     Copy OK\n\nTrack  2\n\n     Filename E:MusicThe StrawbsNomadnessThe Strawbs - Nomadness - 02. Little sleepy.wav\n\n     Peak level 98.8 %\n     Track quality 100.0 %\n     Copy CRC C282B92E\n     Track not present in AccurateRip database\n     Copy OK\n\nTrack  3\n\n     Filename E:MusicThe StrawbsNomadnessThe Strawbs - Nomadness - 03. Golden salamander.wav\n\n     Peak level 98.8 %\n     Track quality 100.0 %\n     Copy CRC F26B80FA\n     Track not present in AccurateRip database\n     Copy OK\n\nTrack  4\n\n     Filename E:MusicThe StrawbsNomadnessThe Strawbs - Nomadness - 04. Absent friend - How I need you.wav\n\n     Peak level 98.8 %\n     Track quality 100.0 %\n     Copy CRC 0636B7DE\n     Track not present in AccurateRip database\n     Copy OK\n\nTrack  5\n\n     Filename E:MusicThe StrawbsNomadnessThe Strawbs - Nomadness - 05. Back on the farm.wav\n\n     Peak level 98.8 %\n     Track quality 100.0 %\n     Copy CRC DA206B3B\n     Track not present in AccurateRip database\n     Copy OK\n\nTrack  6\n\n     Filename E:MusicThe StrawbsNomadnessThe Strawbs - Nomadness - 06. So shall our love die.wav\n\n     Peak level 98.8 %\n     Track quality 100.0 %\n     Copy CRC BA81B08E\n     Track not present in AccurateRip database\n     Copy OK\n\nTrack  7\n\n     Filename E:MusicThe StrawbsNomadnessThe Strawbs - Nomadness - 07. Tokyo Rosie.wav\n\n     Peak level 98.8 %\n     Track quality 99.9 %\n     Copy CRC AEEB570E\n     Track not present in AccurateRip database\n     Copy OK\n\nTrack  8\n\n     Filename E:MusicThe StrawbsNomadnessThe Strawbs - Nomadness - 08. A mind of my own.wav\n\n     Peak level 98.8 %\n     Track quality 100.0 %\n     Copy CRC FE83D2EF\n     Track not present in AccurateRip database\n     Copy OK\n\nTrack  9\n\n     Filename E:MusicThe StrawbsNomadnessThe Strawbs - Nomadness - 09. Hanging in the gallery.wav\n\n     Peak level 98.8 %\n     Track quality 100.0 %\n     Copy CRC 96BC2840\n     Track not present in AccurateRip database\n     Copy OK\n\nTrack 10\n\n     Filename E:MusicThe StrawbsNomadnessThe Strawbs - Nomadness - 10. The promised land.wav\n\n     Peak level 98.8 %\n     Track quality 100.0 %\n     Copy CRC 17547AE5\n     Track not present in AccurateRip database\n     Copy OK\n\nTrack 11\n\n     Filename E:MusicThe StrawbsNomadnessThe Strawbs - Nomadness - 11. Still small voice.wav\n\n     Peak level 98.8 %\n     Track quality 99.9 %\n     Copy CRC 50F887A7\n     Track not present in AccurateRip database\n     Copy OK\n\nTrack 12\n\n     Filename E:MusicThe StrawbsNomadnessThe Strawbs - Nomadness - 12. It's good to see the sun.wav\n\n     Peak level 98.8 %\n     Track quality 99.9 %\n     Copy CRC FD5C960E\n     Track not present in AccurateRip database\n     Copy OK\n\n\nNone of the tracks are present in the AccurateRip database\n\nNo errors occurred\n\nEnd of status report\n","torrent":{"xt":"urn:btih:bec8c649e21103a5c150763facaeab2d4985b0e7","amp;dn":"The+Strawbs+-+Nomadness+FLAC","amp;tr":["udp%3A%2F%2Ftracker.openbittorrent.com%3A80","udp%3A%2F%2Fopen.demonii.com%3A1337","udp%3A%2F%2Ftracker.coppersurfer.tk%3A6969","udp%3A%2F%2Fexodus.desync.com%3A6969"],"infoHash":"bec8c649e21103a5c150763facaeab2d4985b0e7","infoHashBuffer":{"type":"Buffer","data":[190,200,198,73,226,17,3,165,193,80,118,63,172,174,171,45,73,133,176,231]},"announce":[],"urlList":[]}}